<?xml version="1.0" standalone="no"?><!DOCTYPE svg PUBLIC "-//W3C//DTD SVG 1.1//EN" "http://www.w3.org/Graphics/SVG/1.1/DTD/svg11.dtd"><svg t="1689901742845" class="icon" viewBox="0 0 1024 1024" version="1.1" xmlns="http://www.w3.org/2000/svg" p-id="5497" xmlns:xlink="http://www.w3.org/1999/xlink" width="200" height="200"><path d="M290.51 701.89h134.16a31.85 31.85 0 0 0 12.15-2.35 31.41 31.41 0 0 0 10.31-6.83l219-219.21L756 385.56a31.62 31.62 0 0 0 0-44.92l-134.2-135.7a31.62 31.62 0 0 0-44.93 0l-89.23 89.52L268 513.67a31.65 31.65 0 0 0-9.18 22.46v134.13a31.65 31.65 0 0 0 31.65 31.63zM599.33 272l89.55 89.52L644 406.44l-89.6-89.52zM322.15 549.1l187.64-187.58L599.33 451 411.69 638.62h-89.54z m474.63 216H227.22a31.64 31.64 0 0 0 0 63.27h569.56a31.64 31.64 0 0 0 0-63.27z" p-id="5498"></path></svg>