<?xml version="1.0" standalone="no"?><!DOCTYPE svg PUBLIC "-//W3C//DTD SVG 1.1//EN" "http://www.w3.org/Graphics/SVG/1.1/DTD/svg11.dtd"><svg t="1681090675528" class="icon" viewBox="0 0 1024 1024" version="1.1" xmlns="http://www.w3.org/2000/svg" p-id="3101" xmlns:xlink="http://www.w3.org/1999/xlink" width="200" height="200"><path d="M750 220.7c-19.9 0-36 16.1-36 36v75.5c0 112.9-92.1 204.7-205 204.7s-205-91.8-205-204.7v-75.5c0-19.9-16.1-36-36-36s-36 16.1-36 36v75.5c0 73.7 29 143.1 81.5 195.5 43 43 97.7 70.1 156.5 78.5v155.5L407.3 699c-14.1-14.1-36.9-14.1-50.9 0-14.1 14.1-14.1 36.9 0 50.9l123.7 123.7c7 7 16.2 10.5 25.5 10.5 8.5 0 17-3 23.7-8.9 0.6-0.5 1.2-1 1.7-1.6l124.5-124.5c14.1-14.1 14.1-36.9 0-50.9-14.1-14.1-36.9-14.1-50.9 0L542 760.8V607c61.3-7.3 118.1-34.8 162.7-79.3 52.4-52.4 81.3-121.8 81.3-195.5v-75.5c0-19.9-16.1-36-36-36z" p-id="3102"></path></svg>