<?xml version="1.0" standalone="no"?><!DOCTYPE svg PUBLIC "-//W3C//DTD SVG 1.1//EN" "http://www.w3.org/Graphics/SVG/1.1/DTD/svg11.dtd"><svg t="1724429449260" class="icon" viewBox="0 0 1024 1024" version="1.1" xmlns="http://www.w3.org/2000/svg" p-id="4268" xmlns:xlink="http://www.w3.org/1999/xlink" width="200" height="200"><path d="M909.824 977.454545H291.328a67.723636 67.723636 0 0 1-67.630545-67.630545V291.281455c0-37.282909 30.347636-67.630545 67.630545-67.630546h618.496A67.770182 67.770182 0 0 1 977.454545 291.281455v618.542545c0 37.282909-30.347636 67.630545-67.630545 67.630545zM907.636364 291.281455l-616.308364 2.234181 2.187636 616.308364L907.636364 907.636364V291.281455z m-791.272728 441.43709L114.176 116.363636h618.589091a34.909091 34.909091 0 1 0-0.046546-69.818181H114.176C76.893091 46.545455 46.545455 76.893091 46.545455 114.176v618.589091a34.909091 34.909091 0 1 0 69.818181-0.046546z" fill="#231815" p-id="4269"></path></svg>