<?xml version="1.0" standalone="no"?><!DOCTYPE svg PUBLIC "-//W3C//DTD SVG 1.1//EN" "http://www.w3.org/Graphics/SVG/1.1/DTD/svg11.dtd"><svg t="1681891998734" class="icon" viewBox="0 0 1024 1024" version="1.1" xmlns="http://www.w3.org/2000/svg" p-id="2628" xmlns:xlink="http://www.w3.org/1999/xlink" width="200" height="200"><path d="M832 938.666667a21.266667 21.266667 0 0 1-15.086667-6.246667l-298.666666-298.666667A21.333333 21.333333 0 0 1 512 618.666667V158.166667L377.753333 292.42a21.333333 21.333333 0 0 1-30.173333-30.173333l170.666667-170.666667a21.333333 21.333333 0 0 1 30.173333 0l170.666667 170.666667a21.333333 21.333333 0 1 1-30.173334 30.173333L554.666667 158.166667v451.666666l292.42 292.413334A21.333333 21.333333 0 0 1 832 938.666667z m-582.246667-6.246667l213.333334-213.333333a21.333333 21.333333 0 0 0-30.173334-30.173334l-213.333333 213.333334a21.333333 21.333333 0 0 0 30.173333 30.173333z" fill="#5C5C66" p-id="2629"></path></svg>