<?xml version="1.0" standalone="no"?><!DOCTYPE svg PUBLIC "-//W3C//DTD SVG 1.1//EN" "http://www.w3.org/Graphics/SVG/1.1/DTD/svg11.dtd"><svg t="1722346379478" class="icon" viewBox="0 0 1024 1024" version="1.1" xmlns="http://www.w3.org/2000/svg" p-id="7893" xmlns:xlink="http://www.w3.org/1999/xlink" width="128" height="128"><path d="M512 448a106.666667 106.666667 0 1 0 0 213.333333 106.666667 106.666667 0 0 0 0-213.333333z m-192 106.666667a192 192 0 1 1 384 0 192 192 0 0 1-384 0zM682.666667 170.666667a42.666667 42.666667 0 1 0 0 85.333333 42.666667 42.666667 0 0 0 0-85.333333z m-128 42.666666a128 128 0 1 1 256 0 128 128 0 0 1-256 0zM213.333333 725.333333a42.666667 42.666667 0 1 0 0 85.333334 42.666667 42.666667 0 0 0 0-85.333334z m-128 42.666667a128 128 0 1 1 256 0 128 128 0 0 1-256 0zM810.666667 768a42.666667 42.666667 0 1 0 0 85.333333 42.666667 42.666667 0 0 0 0-85.333333z m-128 42.666667a128 128 0 1 1 256 0 128 128 0 0 1-256 0z" fill="#000000" p-id="7894"></path><path d="M709.162667 790.848l-120.661334-120.682667 60.330667-60.330666 120.682667 120.682666-60.330667 60.330667zM390.250667 599.381333l-147.797334 85.333334 42.666667 73.898666 147.797333-85.333333-42.666666-73.898667zM678.997333 320.853333l-66.56 109.333334-72.874666-44.373334 66.56-109.333333 72.874666 44.373333z" fill="#000000" p-id="7895"></path></svg>